# xmcd
#
# Track frame offsets: 
#        150
#        18873
#        32594
#        45465
#        62602
#        80797
#        94192
#        110963
#        126707
#        141953
#        155063
#        165443
#        180831
#        194789
#        208416
#        227830
#        248958
#        268824
#        285428
#        304935
#        320938
#        341329
#
# Disc length: 4791 seconds
#
# Revision: 0
# Processed by: cddbd v1.5.2PL0 Copyright (c) Steve Scherf et al.
# Submitted via: ExactAudioCopy v0.99pb4
#
DISCID=5212b516
DTITLE=George Perkins - Cryin' In The Streets
DYEAR=1979
DGENRE=Soul
TTITLE0=Cryin' In The Streets (Silver Fox Version)
TTITLE1=No Need for A Black Man To Cry
TTITLE2=I Wants To Be Free
TTITLE3=How Can A Broke Man Survive
TTITLE4=Groove Making
TTITLE5=A Man In Love
TTITLE6=When You Try To Use A Good Man
TTITLE7=Baby You Saved Me
TTITLE8=How Sweet It Would Be
TTITLE9=Keep On Loving Me
TTITLE10=Baby I Love You
TTITLE11=Keep On Trying (Star - Glow Version)
TTITLE12=What The Deal Is
TTITLE13=Dance, Dance, Dance
TTITLE14=Cryin' In The Street (Full) (1979 Version)
TTITLE15=Be Proud (Parts 1, 2)
TTITLE16=You've Been Good To Me
TTITLE17=Give It To Me
TTITLE18=I Never Had It So Good
TTITLE19=Cryin' In Iran
TTITLE20=Keep On Trying (GP Version)
TTITLE21=(Crying For A) Helping Hand (Parts 1, 2)
EXTD=
EXTT0=
EXTT1=
EXTT2=
EXTT3=
EXTT4=
EXTT5=
EXTT6=
EXTT7=
EXTT8=
EXTT9=
EXTT10=
EXTT11=
EXTT12=
EXTT13=
EXTT14=
EXTT15=
EXTT16=
EXTT17=
EXTT18=
EXTT19=
EXTT20=
EXTT21=
PLAYORDER=
